<svg xmlns="http://www.w3.org/2000/svg" viewBox="0 0 1200 800">
<defs><linearGradient id="g" x1="0" x2="1" y1="0" y2="1"><stop stop-color="#ffd1e8"/><stop offset="1" stop-color="#ff7abc"/></linearGradient><filter id="blur"><feGaussianBlur stdDeviation="22"/></filter></defs>
<rect width="1200" height="800" fill="#080509"/><circle cx="230" cy="150" r="180" fill="#ff7abc" opacity=".18" filter="url(#blur)"/><circle cx="970" cy="620" r="240" fill="#ffd1e8" opacity=".17" filter="url(#blur)"/>
<rect x="190" y="165" width="820" height="500" rx="56" fill="#130b14" stroke="white" stroke-opacity=".13"/>
<circle cx="410" cy="380" r="128" fill="url(#g)"/><path d="M340 365 C342 285 480 285 482 365 C485 465 338 468 340 365Z" fill="#22101d" opacity=".86"/><circle cx="410" cy="350" r="56" fill="#f8c9b6"/><path d="M351 330 C374 260 470 270 482 338 C430 315 393 314 351 330Z" fill="#26111c"/>
<rect x="610" y="285" width="250" height="38" rx="19" fill="#ff7abc"/><rect x="610" y="350" width="330" height="26" rx="13" fill="white" opacity=".18"/><rect x="610" y="398" width="265" height="26" rx="13" fill="white" opacity=".15"/><rect x="610" y="470" width="185" height="54" rx="27" fill="url(#g)"/>
<path d="M250 660 C400 610 750 610 950 660" stroke="white" stroke-opacity=".15" stroke-width="12" fill="none"/>
<text x="70" y="115" fill="white" font-size="54" font-family="Arial" font-weight="800">Saray Beauty Centre</text><text x="72" y="166" fill="#ff7abc" font-size="28" font-family="Arial" letter-spacing="4">BEAUTY BOOKING DEMO</text>
</svg>